# xmcd
#
# Track frame offsets: 
#        150
#        25807
#        54502
#        64950
#        87457
#        103097
#        120140
#        141750
#        152372
#        175335
#        199820
#        217300
#        237832
#        264605
#
# Disc length: 3810 seconds
#
# Revision: 0
# Processed by: cddbd v1.5PL3 Copyright (c) Steve Scherf et al.
# Submitted via: ExactAudioCopy v0.95a5
#
DISCID=c60ee00e
DTITLE=Various Artist - Junior Wells and Friends
DYEAR=1999
DGENRE=Blues
TTITLE0=Junior Wells - Got My Mojo Working
TTITLE1=Junior Wells - My Younger Days
TTITLE2=Junior Wells - Messin' with the Kid
TTITLE3=George Baze - Nobody Wants a Loser
TTITLE4=George Baze - Little Red Rooster
TTITLE5=George Baze - Rockin' Daddy
TTITLE6=George Baze - Sweet Home Chicago
TTITLE7=Pistol Pete - Honey Bee
TTITLE8=Pistol Pete - Look On Yonder Wall
TTITLE9=The Blues Instigators - Medley
TTITLE10=The Blues Instigators - How Blue Can You Get
TTITLE11=Roy Hytower - I'm Ready
TTITLE12=Roy Hytower - Manish Boy
TTITLE13=Junior Welss and Buddy Guy - So Tired
EXTD=
EXTT0=
EXTT1=
EXTT2=
EXTT3=
EXTT4=
EXTT5=
EXTT6=
EXTT7=
EXTT8=
EXTT9=
EXTT10=
EXTT11=
EXTT12=
EXTT13=
PLAYORDER=
